<svg xmlns="http://www.w3.org/2000/svg" xmlns:xlink="http://www.w3.org/1999/xlink" width="42" height="42"><defs><linearGradient id="b" x1="1056.035" x2="1031.176" y1="544.13" y2="517.701" gradientTransform="translate(-1384.02 316.47) scale(1.34562)" gradientUnits="userSpaceOnUse" xlink:href="#a"/><linearGradient id="a"><stop offset="0" stop-color="#5a5a5a"/><stop offset="1" stop-color="#656e85"/></linearGradient></defs><g transform="translate(0 -1010.362)"><rect width="42" height="42" y="1010.362" fill="url(#b)" rx="8.876" ry="8.876"/><path fill="#fff" style="line-height:normal;text-indent:0;text-align:start;text-decoration-line:none;text-decoration-style:solid;text-decoration-color:#000;text-transform:none;block-progression:tb;isolation:auto;mix-blend-mode:normal" d="M10.5 1018.362a.5.5 0 0 0-.5.5v23.5h-.5a.5.5 0 0 0-.5.5v2a.5.5 0 0 0 .5.5h15a.5.5 0 0 0 .5-.5v-2a.5.5 0 0 0-.5-.5H24v-8h1.5a.5.5 0 0 0 .5-.5v-.5h.5c.286 0 .5.215.5.5v8c0 .79.628 1.44 1.406 1.49a.5.5 0 0 0 .094.01h1a.5.5 0 0 0 .104-.012 1.503 1.503 0 0 0 1.396-1.488v-8.5h.5a.5.5 0 0 0 .5-.5v-1.5h1.5a.5.5 0 0 0 .475-.658l-.782-2.342h.307a.5.5 0 0 0 .484-.621l-1-4a.5.5 0 0 0-.484-.379h-1.813l-.83-.848a.5.5 0 0 0-.359-.152.5.5 0 0 0-.352.147l-.123.123-.882-1.534a.5.5 0 0 0-.246-.214l-1.202-.483a.5.5 0 0 0-.195-.039.5.5 0 0 0-.178.967l1.041.418.932 1.615-.147.147a.5.5 0 0 0-.146.353v3a.5.5 0 0 0 .5.5h.36l-.844 3.38a.5.5 0 0 0 .484.62h.5v1.5a.5.5 0 0 0 .5.5h.5v8.5c0 .286-.214.5-.5.5h-1a.488.488 0 0 1-.5-.5v-8c0-.822-.678-1.5-1.5-1.5H26v-3.5a.5.5 0 0 0-.5-.5H24v-9.5a.5.5 0 0 0-.5-.5h-13zm.5 1h12v23H11v-23zm1.5 2a.5.5 0 0 0-.5.5v7a.5.5 0 0 0 .5.5h9a.5.5 0 0 0 .5-.5v-7a.5.5 0 0 0-.5-.5h-9zm.5 1h8v6h-8v-6zm16.496 1.211.623.639a.5.5 0 0 0 .358.15h1.633l.75 3h-.36a.5.5 0 0 0-.475.658l.782 2.342H29.14l.844-3.377a.5.5 0 0 0-.484-.623H29v-2.293l.496-.496zm-5.496 5.79h1v3.417a.5.5 0 0 0 0 .164v.418h-1v-4zm-8.5 2a.5.5 0 0 0-.486.384l-1 4.2a.5.5 0 0 0 .486.616h1.291l-.762 2.131a.5.5 0 0 0 .832.514l4-4.2a.5.5 0 0 0-.361-.845h-1.291l.762-2.13a.5.5 0 0 0-.471-.67h-3zm14.5 0h1v1h-1v-1zm-14.105 1h1.896l-.762 2.132a.5.5 0 0 0 .471.668h.834l-1.57 1.65.207-.582a.5.5 0 0 0-.471-.668h-1.367l.762-3.2zm-5.895 11h14v1H10v-1z" color="#000" font-family="sans-serif" font-weight="400" overflow="visible"/></g></svg>