<svg xmlns="http://www.w3.org/2000/svg" width="32" height="32"><g transform="translate(-179 -1532.362)"><path fill="none" stroke="#576d7e" stroke-linecap="round" stroke-linejoin="round" d="M198.507 1549.362h1c.554 0 1 .446 1 1v8c0 .554.446 1 1 1h1"/><path fill="none" stroke="#576d7e" stroke-linecap="round" stroke-linejoin="round" d="M201.507 1559.362h1c.554 0 1-.446 1-1v-8.924"/><path fill="none" stroke="#34485c" stroke-linecap="round" stroke-linejoin="round" d="m200.014 1537.865 1.001.482.85 1.822"/><rect width="2" height="3" x="202.5" y="1546.362" fill="#60c5b8" rx="0" ry="0"/><path fill="#25b39e" fill-rule="evenodd" d="M201 1540.362v3h1l-1 4h5l-1-3h1l-1-4h-2.024l-.576-1z"/><path fill="#34485c" d="M197 1545.362h2v5h-2z"/><rect width="13" height="25" x="185" y="1535.362" fill="#f05542" rx="1" ry="1"/><rect width="15" height="2" x="184" y="1559.362" fill="#34485c" rx="1" ry="1"/><path fill="#4bbfeb" d="M187 1538.362h9v7h-9z"/><path fill="#f8b84e" fill-rule="evenodd" d="m190 1548.362-1 4.2h2l-1 2.8 4-4.2h-2l1-2.8z"/><rect width="15" height="1" x="184" y="1560.362" fill="#34485c" rx="0" ry="0"/><path fill="none" stroke="#34485c" stroke-dashoffset="2" stroke-linecap="round" stroke-linejoin="round" stroke-width="1.113" d="M186.556 1537.918h9.887v7.887h-9.887z"/></g></svg>